<svg id="Layer_1" data-name="Layer 1" xmlns="http://www.w3.org/2000/svg" viewBox="0 0 12 14.34"><defs><style>.cls-1{fill:#8400ea;fill-rule:evenodd}</style></defs><title>Icon_Minions</title><path class="cls-1" d="M10 2.05c-.22-.22-1.69-.37-2 0s-5 8-5 8v1s4.66 4.84 5 5a4.33 4.33 0 0 0 2 0c.28-.16 5-5 5-5v-1s-4.78-7.78-5-8zm2 9s-1.5 1.63-2 2a2 2 0 0 1-2 0 14.64 14.64 0 0 1-2-2s-.34-1.56 0-2a1.38 1.38 0 0 1 1-.32A1.29 1.29 0 0 1 8 9a1.08 1.08 0 0 1 0 1h2a1.21 1.21 0 0 1 0-1c.13-.2.6-.28 1.06-.27A1.29 1.29 0 0 1 12 9a5.31 5.31 0 0 1 0 2.05z" transform="translate(-3 -1.83)"/></svg>